<?xml version="1.0" encoding="UTF-8" standalone="no"?>
<svg
   width="500"
   height="500"
   viewBox="0 -200 1000 1400"
   version="1.1"
   id="svg1"
   sodipodi:docname="冯_20260223_231334.svg"
   inkscape:version="1.4.3 (0d15f75, 2025-12-25)"
   xmlns:inkscape="http://www.inkscape.org/namespaces/inkscape"
   xmlns:sodipodi="http://sodipodi.sourceforge.net/DTD/sodipodi-0.dtd"
   xmlns="http://www.w3.org/2000/svg"
   xmlns:svg="http://www.w3.org/2000/svg">
  <defs
     id="defs1" />
  <sodipodi:namedview
     id="namedview1"
     pagecolor="#ffffff"
     bordercolor="#000000"
     borderopacity="0.25"
     inkscape:showpageshadow="2"
     inkscape:pageopacity="0.0"
     inkscape:pagecheckerboard="0"
     inkscape:deskcolor="#d1d1d1"
     inkscape:zoom="1.58"
     inkscape:cx="249.68354"
     inkscape:cy="300.63291"
     inkscape:window-width="1920"
     inkscape:window-height="992"
     inkscape:window-x="-8"
     inkscape:window-y="-8"
     inkscape:window-maximized="1"
     inkscape:current-layer="svg1" />
  <path
     id="path1"
     d="M 75.685156 170.23984 L 64.682031 179.24141 C 81.348698 191.24141 98.848701 206.23828 117.18203 224.23828 C 135.51536 242.23828 152.18281 260.74063 167.18281 279.74062 C 182.18281 298.74062 192.68281 316.90885 198.68281 334.24219 C 208.68281 340.24219 217.34792 342.07161 224.68125 339.73828 C 232.01458 337.40495 237.01536 332.07552 239.68203 323.74219 C 242.3487 315.40885 241.85026 305.07318 238.18359 292.73984 C 234.51693 280.40651 226.68437 267.07474 214.68438 252.74141 C 202.68437 238.40807 185.3487 224.07396 162.68203 209.74062 C 140.01536 195.40729 111.01849 182.23984 75.685156 170.23984 z M 332.68359 262.24062 C 299.35026 334.24063 271.18594 395.07161 248.18594 444.73828 C 225.18594 494.40495 206.18516 535.23828 191.18516 567.23828 C 176.18516 599.23828 164.3487 624.74063 155.68203 643.74062 C 147.01536 662.74063 140.18516 677.23906 135.18516 687.23906 L 123.68438 710.24062 C 121.01771 715.57396 118.35026 721.24297 115.68359 727.24297 C 111.01693 737.24297 107.3526 743.24062 104.68594 745.24062 C 102.01927 747.24062 98.015362 748.24297 92.682031 748.24297 L 76.685938 748.24297 L 56.68125 748.24297 L 47.685156 748.24297 L 47.685156 772.23984 C 58.351823 772.90651 67.351042 774.07318 74.684375 775.73984 C 82.017708 777.40651 89.017708 780.23828 95.684375 784.23828 C 103.68437 788.90495 109.68203 799.24062 113.68203 815.24062 C 117.68203 831.24062 119.68125 852.0763 119.68125 877.74297 C 119.68125 903.40964 117.68203 933.23906 113.68203 967.23906 C 113.68203 981.23906 115.18281 992.74141 118.18281 1001.7414 C 121.18281 1010.7414 126.34792 1015.2383 133.68125 1015.2383 C 147.01458 1015.2383 157.18594 1009.7391 164.18594 998.73906 C 171.18594 987.73906 175.01458 972.90651 175.68125 954.23984 C 176.34792 934.90651 175.84948 917.24219 174.18281 901.24219 C 172.51615 885.24219 170.3526 870.57396 167.68594 857.24062 C 165.01927 843.90729 162.51615 831.5724 160.18281 820.23906 C 157.84948 808.90573 156.68281 798.24141 156.68281 788.24141 C 156.01615 776.24141 157.51693 763.07396 161.18359 748.74062 C 164.85026 734.40729 169.01849 719.57474 173.68516 704.24141 C 177.01849 694.90807 183.68438 678.24062 193.68438 654.24062 C 203.68437 630.24063 215.35104 601.90651 228.68438 569.23984 C 242.01771 536.57318 256.35182 502.07161 271.68516 465.73828 C 287.01849 429.40495 301.68125 394.0763 315.68125 359.74297 C 329.68125 325.40964 342.01615 294.90651 352.68281 268.23984 L 332.68359 262.24062 z " />
</svg>
