<?xml version="1.0" encoding="UTF-8"?>
<svg xmlns="http://www.w3.org/2000/svg" width="500" height="500" viewBox="0 -200 1000 1400">
    <path d="M126 824Q175 814 206.5 798.0Q238 782 255.0 764.0Q272 746 277.0 729.0Q282 712 277.5 700.5Q273 689 262.0 685.0Q251 681 236 689Q228 711 208.5 734.5Q189 758 164.5 779.0Q140 800 116 814ZM51 602Q99 595 129.5 581.0Q160 567 177.0 550.5Q194 534 199.5 518.5Q205 503 201.5 491.5Q198 480 187.5 476.5Q177 473 162 480Q153 500 133.5 521.0Q114 542 89.5 560.5Q65 579 41 591ZM97 201Q105 201 108.5 204.0Q112 207 119 222Q124 232 129.0 242.5Q134 253 143.5 274.5Q153 296 172.5 340.0Q192 384 225.0 460.5Q258 537 310 657L330 652Q317 614 299.0 566.0Q281 518 261.5 467.5Q242 417 225.0 371.0Q208 325 195.5 291.5Q183 258 178 244Q172 222 167.5 200.5Q163 179 163 161Q163 146 166.5 128.5Q170 111 174.0 90.5Q178 70 181.0 45.5Q184 21 182 -9Q181 -39 170.5 -55.5Q160 -72 139 -72Q127 -72 121.5 -58.5Q116 -45 116 -23Q122 28 122.0 68.0Q122 108 117.0 133.0Q112 158 101 165Q91 172 80.0 174.5Q69 177 52 178V201Q52 201 61.0 201.0Q70 201 81.0 201.0Q92 201 97 201ZM273 428H846L888 478Q888 478 895.5 472.0Q903 466 914.5 456.0Q926 446 939.0 435.0Q952 424 963 414Q959 398 938 398H281ZM605 826 686 816Q685 806 676.0 798.5Q667 791 649 788V410H605ZM404 22H848V-8H404ZM389 279V304L444 279H816L839 308L898 262Q894 257 885.5 252.5Q877 248 863 246V-52Q863 -55 851.0 -61.5Q839 -68 825 -68H819V249H433V-55Q433 -59 422.5 -65.5Q412 -72 395 -72H389ZM426 799 510 772Q506 757 477 760Q465 714 444.0 660.5Q423 607 393.5 553.5Q364 500 327 455L315 468Q337 505 355.0 547.0Q373 589 387.0 633.0Q401 677 410.5 719.5Q420 762 426 799ZM396 635H818L858 687Q858 687 865.5 681.0Q873 675 884.5 665.0Q896 655 909.0 643.5Q922 632 933 622Q929 606 907 606H404Z" fill="#000" transform="matrix(1,0,0,-1,0,1000)"/>
</svg>